<svg width="16" height="16" viewBox="0 0 16 16" fill="none" xmlns="http://www.w3.org/2000/svg">
<rect width="16" height="16" rx="8" fill="black"/>
<path d="M10.5786 4.40039L12.8008 7.70119L7.80078 12.4004L2.80078 7.70119L5.023 4.40039H10.5786ZM8.67356 8.13372H6.928L7.80078 10.0895L8.67356 8.13372ZM5.82523 8.13372H4.84967L6.57745 9.75772L5.82523 8.13372ZM10.7519 8.13372H9.77634L9.02467 9.75719L10.7519 8.13372ZM6.61023 5.46706H5.628L4.55023 7.06706H5.658L6.61023 5.46706ZM7.88023 5.46706H7.72134L6.76911 7.06706H8.83245L7.88023 5.46706ZM9.97356 5.46706H8.99134L9.94356 7.06706H11.0508L9.97356 5.46706Z" fill="#CCFF00"/>
</svg>
