<svg width="27" height="27" viewBox="0 0 27 27" fill="none" xmlns="http://www.w3.org/2000/svg">
<rect x="4.41464" y="8.14694" width="17.8878" height="15.3027" rx="2.45319" fill="#C1C1C1" stroke="#C1C1C1" stroke-width="0.207942"/>
<rect x="5.75491" y="10.0616" width="15.2058" height="10.61" rx="1.5854" fill="black" stroke="#C1C1C1" stroke-width="0.0176356"/>
<rect x="9.87695" y="14.5596" width="1.5" height="1.5" rx="0.75" fill="#CCFF00"/>
<rect x="12.377" y="14.5596" width="1.5" height="1.5" rx="0.75" fill="#CCFF00"/>
<rect x="14.877" y="14.5596" width="1.5" height="1.5" rx="0.75" fill="#CCFF00"/>
<path d="M4.24136 11.8457H2.88707C2.75977 11.8457 2.65658 11.9489 2.65658 12.0762V18.9446C2.65658 19.0719 2.75977 19.1751 2.88707 19.1751H4.24136V11.8457Z" fill="#C1C1C1" stroke="#C1C1C1" stroke-width="0.138628"/>
<path d="M22.4717 11.8457H23.8259C23.9532 11.8457 24.0564 11.9489 24.0564 12.0762V18.9446C24.0564 19.0719 23.9532 19.1751 23.8259 19.1751H22.4717V11.8457Z" fill="#C1C1C1" stroke="#C1C1C1" stroke-width="0.138628"/>
<path d="M1.9385 13.2812H1.15868C1.03138 13.2812 0.92819 13.3844 0.92819 13.5117V17.7951C0.92819 17.9224 1.03138 18.0256 1.15868 18.0256H1.9385V13.2812Z" fill="#C1C1C1" stroke="#C1C1C1" stroke-width="0.138628"/>
<path d="M24.7724 13.2812H25.5523C25.6796 13.2812 25.7827 13.3844 25.7827 13.5117V17.7951C25.7827 17.9224 25.6796 18.0256 25.5523 18.0256H24.7724V13.2812Z" fill="#C1C1C1" stroke="#C1C1C1" stroke-width="0.138628"/>
<path d="M10.0508 8.04262C10.0508 7.24944 10.6938 6.60645 11.487 6.60645H14.9338C15.7269 6.60645 16.3699 7.24944 16.3699 8.04262H10.0508Z" fill="#C1C1C1"/>
<rect x="12.6387" y="4.59668" width="1.14894" height="2.01064" fill="#C1C1C1"/>
<path d="M11.7754 3.6924C11.7754 2.92221 12.3998 2.29785 13.1699 2.29785H13.2532C14.0234 2.29785 14.6477 2.92221 14.6477 3.6924V3.77564C14.6477 4.54583 14.0234 5.17019 13.2532 5.17019H13.1699C12.3998 5.17019 11.7754 4.54583 11.7754 3.77564V3.6924Z" fill="#C1C1C1"/>
<rect x="11.7754" y="21.543" width="3.2886" height="0.636503" rx="0.318251" fill="white"/>
</svg>
