<svg width="20" height="20" viewBox="0 0 20 20" fill="none" xmlns="http://www.w3.org/2000/svg">
<path d="M8.4707 2.38086C9.95757 2.08539 11.499 2.23692 12.8994 2.81738C14.2998 3.39786 15.497 4.38087 16.3389 5.6416C17.1279 6.82342 17.572 8.19984 17.624 9.61621L17.6289 9.90039C17.626 11.9316 16.8174 13.8793 15.3809 15.3154C13.9442 16.7515 11.9962 17.5583 9.96484 17.5605C8.44921 17.5606 6.9673 17.1125 5.70703 16.2705C4.44651 15.4284 3.46392 14.2306 2.88379 12.8301C2.30377 11.4296 2.15242 9.88807 2.44824 8.40137C2.74412 6.9148 3.47402 5.54923 4.5459 4.47754C5.61788 3.40582 6.98397 2.67638 8.4707 2.38086Z" fill="white" stroke="black"/>
<path d="M7.24444 11.0795H12.7444C12.8613 11.0795 12.9756 11.0454 13.0734 10.9813C13.1711 10.9172 13.248 10.826 13.2946 10.7189C13.3412 10.6117 13.3556 10.4933 13.3358 10.3781C13.3161 10.2629 13.2631 10.156 13.1834 10.0705L11.6834 8.45649C11.6297 8.39884 11.5651 8.35234 11.4933 8.31966C11.4216 8.28698 11.3441 8.26875 11.2653 8.26601C11.1865 8.26327 11.1079 8.27607 11.0341 8.30369C10.9603 8.33132 10.8926 8.37321 10.8349 8.42699C10.7773 8.48076 10.7308 8.54537 10.6981 8.61711C10.6654 8.68886 10.6472 8.76634 10.6445 8.84513C10.6417 8.92392 10.6545 9.00248 10.6821 9.07632C10.7098 9.15016 10.7517 9.21784 10.8054 9.27549L11.3694 9.87549H7.24844C7.08931 9.87549 6.9367 9.9387 6.82417 10.0512C6.71165 10.1637 6.64844 10.3164 6.64844 10.4755C6.64844 10.6346 6.71165 10.7872 6.82417 10.8998C6.9367 11.0123 7.08931 11.0755 7.24844 11.0755L7.24444 11.0795Z" fill="black"/>
</svg>
