<svg width="18" height="18" viewBox="0 0 18 18" fill="none" xmlns="http://www.w3.org/2000/svg">
<rect x="0.5" y="0.5" width="17" height="17" rx="8.5" fill="#CCFF00"/>
<rect x="0.5" y="0.5" width="17" height="17" rx="8.5" stroke="black"/>
<g clip-path="url(#clip0_9566_13180)">
<path d="M6.32031 14.4314C5.63281 14.4314 4.94531 14.1564 4.39531 13.6064C3.29531 12.5064 3.29531 10.7877 4.39531 9.6877L5.35781 8.7252C5.6236 8.45941 6.05453 8.45941 6.32031 8.7252C6.5861 8.99098 6.5861 9.42191 6.32031 9.6877L5.35781 10.6502C4.80781 11.2002 4.80781 12.0252 5.35781 12.5752C5.90781 13.1252 6.73281 13.1252 7.28281 12.5752L9.20781 10.6502C9.48281 10.3752 9.62031 10.0314 9.62031 9.6877C9.62031 9.37216 9.50446 9.05663 9.32592 8.79427C9.29415 8.74757 9.25552 8.70607 9.21373 8.66808L9.03589 8.5064C8.7552 8.25123 8.74478 7.81323 9.01301 7.54499C9.27248 7.28553 9.69315 7.28553 9.95261 7.54499L10.2391 7.83145C10.7203 8.3127 10.9953 9.0002 10.9953 9.75645C10.9953 10.5127 10.7203 11.2002 10.1703 11.6814L8.24531 13.6064C7.76406 14.1564 7.00781 14.4314 6.32031 14.4314Z" fill="black"/>
<path d="M8.98855 10.4548C8.72555 10.7178 8.30235 10.7279 8.02714 10.4777L7.7625 10.2371C6.6625 9.13711 6.6625 7.41836 7.7625 6.31836L9.6875 4.39336C10.7875 3.29336 12.5063 3.29336 13.6063 4.39336C14.7063 5.49336 14.7063 7.21211 13.6063 8.31211L12.6438 9.27461C12.378 9.5404 11.947 9.5404 11.6813 9.27461C11.4155 9.00882 11.4155 8.5779 11.6813 8.31211L12.6438 7.34961C13.1938 6.79961 13.1938 5.97461 12.6438 5.42461C12.0938 4.87461 11.2 4.87461 10.7188 5.42461L8.725 7.28086C8.175 7.83086 8.175 8.65586 8.725 9.20586L8.98855 9.46941C9.26066 9.74152 9.26066 10.1827 8.98855 10.4548Z" fill="black"/>
</g>
<defs>
<clipPath id="clip0_9566_13180">
<rect width="11" height="11" fill="white" transform="translate(3.5 3.5)"/>
</clipPath>
</defs>
</svg>
