<svg width="451" height="224" viewBox="0 0 451 224" fill="none" xmlns="http://www.w3.org/2000/svg">
<path d="M224.502 80.371C240.257 80.371 252.012 75.3349 258.495 71.6574C262.447 69.4157 265.38 65.8715 267.672 61.9487C267.796 61.7361 267.577 61.4756 267.346 61.5601C264.084 62.7504 249.651 67.4354 224.502 67.4354C199.356 67.4354 184.088 62.1053 180.613 60.7499C180.37 60.6552 180.133 60.9289 180.264 61.1548C182.831 65.5977 186.179 69.5835 190.702 72.0078C197.489 75.6464 209.241 80.371 224.502 80.371Z" fill="#5B5B5B" stroke="black" stroke-width="2.19318"/>
<path d="M179.002 54.2227C182.781 57.0569 202.08 60.296 224.754 60.296C247.428 60.296 262.004 57.0569 268.482 54.2227" stroke="black" stroke-width="2.42932"/>
<path d="M120 163.5C120 172.06 167.906 179 227 179V211C167.906 211 120 204.06 120 195.5V163.5Z" fill="#D9D9D9"/>
<path d="M227 179C286.094 179 334 172.06 334 163.5V195.5C334 204.06 286.094 211 227 211V179Z" fill="#D9D9D9"/>
<path d="M227 149C256.514 149 283.214 150.733 302.517 153.529C312.175 154.928 319.94 156.588 325.268 158.413C327.938 159.328 329.936 160.264 331.248 161.192C332.594 162.145 333 162.929 333 163.5C333 164.071 332.594 164.855 331.248 165.808C329.936 166.736 327.938 167.672 325.268 168.587C319.94 170.412 312.175 172.072 302.517 173.471C283.214 176.267 256.514 178 227 178C197.486 178 170.786 176.267 151.483 173.471C141.825 172.072 134.06 170.412 128.732 168.587C126.062 167.672 124.064 166.736 122.752 165.808C121.406 164.855 121 164.071 121 163.5C121 162.929 121.406 162.145 122.752 161.192C124.064 160.264 126.062 159.328 128.732 158.413C134.06 156.588 141.825 154.928 151.483 153.529C170.786 150.733 197.486 149 227 149Z" fill="#EAEAEA" stroke="black" stroke-width="2"/>
<ellipse cx="227" cy="162.5" rx="88" ry="11.5" fill="white"/>
<rect x="25.5056" y="3.50558" width="400.989" height="216.989" rx="20.4944" fill="#303030" stroke="black" stroke-width="3.01116"/>
<path d="M27 23C27 13.0589 35.0589 5 45 5H407C416.941 5 425 13.0589 425 23V145H27V23Z" fill="white"/>
<rect x="407.561" y="12" width="7.6946" height="7.6946" rx="3.8473" transform="rotate(45 407.561 12)" fill="#CCFF00"/>
<rect x="396" y="12" width="7.6946" height="7.6946" rx="3.8473" transform="rotate(45 396 12)" fill="#D9D9D9"/>
<rect x="384.441" y="12" width="7.6946" height="7.6946" rx="3.8473" transform="rotate(45 384.441 12)" fill="#EDEDED"/>
<path d="M137.924 179.334L127.71 201.495C127.631 201.666 127.535 201.829 127.441 201.992C126.184 204.185 127.756 206.993 130.354 206.993H314.647C317.19 206.993 318.805 204.27 317.585 202.038L308.398 179.108C307.217 176.949 304.948 175.611 302.487 175.624L143.414 176.421C141.217 176.433 139.166 177.521 137.924 179.334Z" fill="black"/>
<path d="M299.138 161.833L148.436 162.63L148.436 171.001L299.138 170.204L299.138 161.833Z" fill="#D5D5D5"/>
<path d="M305.05 165.317C303.869 163.158 301.599 161.82 299.138 161.833L299.138 170.204C301.599 170.191 303.869 171.529 305.05 173.688L305.05 165.317Z" fill="#D5D5D5"/>
<path d="M148.436 162.63C146.24 162.642 144.188 163.73 142.947 165.543L142.947 173.913C144.188 172.101 146.24 171.013 148.436 171.001L148.436 162.63Z" fill="#D5D5D5"/>
<path d="M130.354 201.572H314.647C316.596 201.572 318 199.972 318 198.22V194.035L318 189.849C318 191.601 316.596 193.202 314.647 193.202H130.354C128.382 193.202 127 191.583 127 189.844L127 198.213C127 199.953 128.381 201.572 130.354 201.572Z" fill="#D5D5D5"/>
<path d="M148.436 171.001L299.138 170.204M148.436 171.001C146.24 171.013 144.188 172.101 142.947 173.913L142.947 165.543M148.436 171.001L148.436 162.63M299.138 170.204C301.599 170.191 303.869 171.529 305.05 173.688L305.05 165.317M299.138 170.204L299.138 161.833M127 198.213C127 199.953 128.381 201.572 130.354 201.572H314.647C316.596 201.572 318 199.972 318 198.22V194.035L318 189.849M127 198.213L127 189.842M127 198.213L127 189.844M148.436 162.63L299.138 161.833M148.436 162.63C146.24 162.642 144.188 163.73 142.947 165.543M299.138 161.833C301.599 161.82 303.869 163.158 305.05 165.317M305.05 165.317L317.585 188.247C317.87 188.768 318 189.316 318 189.849M142.947 165.543L127.592 187.961C127.184 188.556 127 189.207 127 189.842M127 189.842V189.844M318 189.849C318 191.601 316.596 193.202 314.647 193.202H130.354C128.382 193.202 127 191.583 127 189.844" stroke="black" stroke-width="1.25559" stroke-linecap="round" stroke-linejoin="round"/>
<path d="M137.924 165.543L127.71 187.704C127.631 187.875 127.535 188.038 127.441 188.201C126.184 190.394 127.756 193.202 130.354 193.202H314.647C317.19 193.202 318.805 190.479 317.585 188.247L308.398 165.317C307.217 163.158 304.948 161.82 302.487 161.833L143.414 162.63C141.217 162.642 139.166 163.73 137.924 165.543Z" fill="white" stroke="black" stroke-width="1.25559" stroke-linecap="round" stroke-linejoin="round"/>
<path d="M171.244 185H167.409L171.73 171.909H176.588L180.909 185H177.074L174.21 175.514H174.108L171.244 185ZM170.528 179.835H177.739V182.494H170.528V179.835ZM193.776 176.818H190.171C190.146 176.52 190.077 176.249 189.967 176.006C189.86 175.763 189.711 175.555 189.519 175.38C189.332 175.201 189.104 175.065 188.835 174.971C188.567 174.873 188.262 174.824 187.921 174.824C187.325 174.824 186.82 174.969 186.406 175.259C185.997 175.548 185.686 175.964 185.473 176.505C185.264 177.046 185.16 177.696 185.16 178.455C185.16 179.256 185.266 179.927 185.479 180.468C185.697 181.005 186.01 181.41 186.419 181.683C186.828 181.951 187.32 182.085 187.896 182.085C188.224 182.085 188.518 182.045 188.778 181.964C189.038 181.879 189.263 181.757 189.455 181.599C189.647 181.442 189.803 181.252 189.922 181.031C190.045 180.805 190.129 180.551 190.171 180.27L193.776 180.295C193.734 180.849 193.578 181.414 193.31 181.989C193.041 182.56 192.66 183.089 192.165 183.575C191.675 184.056 191.068 184.444 190.344 184.738C189.619 185.032 188.778 185.179 187.819 185.179C186.617 185.179 185.539 184.921 184.585 184.406C183.634 183.89 182.882 183.131 182.328 182.13C181.778 181.129 181.504 179.903 181.504 178.455C181.504 176.997 181.785 175.77 182.347 174.773C182.91 173.771 183.668 173.015 184.623 172.504C185.577 171.988 186.643 171.73 187.819 171.73C188.646 171.73 189.406 171.843 190.101 172.069C190.795 172.295 191.405 172.625 191.929 173.06C192.453 173.49 192.875 174.021 193.195 174.651C193.514 175.282 193.708 176.004 193.776 176.818ZM195.031 174.773V171.909H206.409V174.773H202.471V185H198.968V174.773H195.031ZM211.3 171.909V185H207.746V171.909H211.3ZM225.666 178.455C225.666 179.912 225.383 181.141 224.816 182.143C224.249 183.14 223.484 183.896 222.521 184.412C221.558 184.923 220.484 185.179 219.3 185.179C218.107 185.179 217.028 184.921 216.065 184.406C215.107 183.886 214.344 183.127 213.777 182.13C213.214 181.129 212.933 179.903 212.933 178.455C212.933 176.997 213.214 175.77 213.777 174.773C214.344 173.771 215.107 173.015 216.065 172.504C217.028 171.988 218.107 171.73 219.3 171.73C220.484 171.73 221.558 171.988 222.521 172.504C223.484 173.015 224.249 173.771 224.816 174.773C225.383 175.77 225.666 176.997 225.666 178.455ZM222.01 178.455C222.01 177.67 221.906 177.01 221.697 176.473C221.492 175.932 221.188 175.523 220.783 175.246C220.382 174.964 219.888 174.824 219.3 174.824C218.712 174.824 218.215 174.964 217.81 175.246C217.41 175.523 217.105 175.932 216.896 176.473C216.692 177.01 216.589 177.67 216.589 178.455C216.589 179.239 216.692 179.901 216.896 180.442C217.105 180.979 217.41 181.388 217.81 181.67C218.215 181.947 218.712 182.085 219.3 182.085C219.888 182.085 220.382 181.947 220.783 181.67C221.188 181.388 221.492 180.979 221.697 180.442C221.906 179.901 222.01 179.239 222.01 178.455ZM238.637 171.909V185H235.671L230.941 178.122H230.865V185H227.311V171.909H230.328L234.981 178.761H235.083V171.909H238.637Z" fill="black"/>
<circle cx="19.294" cy="19.294" r="18.5362" transform="matrix(0.866025 0.5 -0.866025 0.5 275.933 157.565)" fill="black" stroke="black" stroke-width="1.51548"/>
<path d="M292.959 170.298V176.127L292.971 176.192C293.445 178.858 292.258 181.691 288.49 183.889C285.109 185.861 280.608 186.86 276.053 186.842C271.498 186.824 266.97 185.79 263.536 183.787C259.612 181.498 258.421 178.524 258.953 175.791L258.968 175.719V170.271L292.959 170.298Z" fill="#D9D9D9" stroke="black" stroke-width="1.51548"/>
<path d="M287.94 163.104C294.449 166.862 294.39 173.006 287.77 176.828C281.151 180.65 270.507 180.685 263.999 176.927C257.49 173.169 257.55 167.024 264.169 163.202C270.789 159.38 281.432 159.346 287.94 163.104Z" fill="#CCFF00" stroke="black" stroke-width="1.51548"/>
<path d="M282.739 188.539L274.466 169.206C273.888 167.855 274.365 166.283 275.597 165.48C276.905 165.045 278.342 165.552 279.081 166.715C281.571 170.631 285.186 176.404 286.622 178.897C296.72 176.954 302.093 179.175 303.946 179.452C305.429 179.674 306.293 180.594 306.54 181.025C307.004 182.321 308.115 185.578 308.857 188.243C309.783 191.574 309.598 193.887 310.154 196.2C310.709 198.513 311.636 198.976 311.914 200.179C312.136 201.141 311.821 201.937 311.636 202.215C308.517 204.312 301.908 208.71 300.426 209.524C298.573 210.542 296.164 209.617 294.96 208.507C291.717 205.361 285.973 202.955 283.657 201.937C281.341 200.919 281.063 200.734 277.82 198.051C275.656 196.26 271.836 194 269.59 192.746C268.977 192.403 268.758 191.625 269.112 191.019C270.111 189.355 272.051 188.502 273.952 188.889L275.319 189.168L281.275 192.52C281.657 192.734 282.126 192.716 282.49 192.474C282.814 192.258 283.008 191.895 283.008 191.506V189.852C283.008 189.401 282.917 188.954 282.739 188.539Z" fill="white" stroke="black" stroke-width="1.90753"/>
<path d="M255.07 153.417L265.789 158.476L267.391 157.99L259.876 151.959L255.07 153.417Z" fill="white"/>
<path d="M265.24 149.457L268.871 157.103L270.473 156.617L270.047 147.999L265.24 149.457Z" fill="white"/>
<path d="M278.595 149.674L273.021 156.382L271.802 156.557L274.936 150.197L278.595 149.674Z" fill="white"/>
<path d="M235.802 36.5209C235.275 31.177 230.687 27 225.103 27C219.587 27 215.047 31.0766 214.428 36.3254C209.085 37.1668 205 41.6999 205 47.1787C205 53.2572 210.024 58.1852 216.22 58.1852H221.614V47.7901H214.144L224.635 37.0893L235.127 47.7901H227.656V58.1852H233.985V58.1378C239.743 57.6719 244.27 52.9476 244.27 47.1787C244.27 42.0328 240.666 37.7266 235.802 36.5209Z" fill="#CCFF00"/>
<path d="M227.605 58.1854H221.665V47.5912H214.24L224.635 36.2402L235.03 47.5912H227.605V58.1854Z" fill="black"/>
<path d="M60.196 86V75.83H56.524V73.4H66.676V75.83H62.896V86H60.196ZM74.0899 86.108C73.0699 86.108 72.1579 85.898 71.3539 85.478C70.5619 85.046 69.9379 84.458 69.4819 83.714C69.0259 82.958 68.7979 82.106 68.7979 81.158V73.382H71.5159V80.996C71.5159 81.5 71.6299 81.956 71.8579 82.364C72.0859 82.76 72.3919 83.078 72.7759 83.318C73.1719 83.558 73.6099 83.678 74.0899 83.678C74.5819 83.678 75.0259 83.558 75.4219 83.318C75.8299 83.078 76.1479 82.76 76.3759 82.364C76.6159 81.956 76.7359 81.5 76.7359 80.996V73.382H79.3639V81.158C79.3639 82.106 79.1359 82.958 78.6799 83.714C78.2239 84.458 77.5939 85.046 76.7899 85.478C75.9979 85.898 75.0979 86.108 74.0899 86.108ZM82.529 86V73.4H88.109C88.889 73.4 89.597 73.58 90.233 73.94C90.869 74.288 91.367 74.762 91.727 75.362C92.099 75.962 92.285 76.646 92.285 77.414C92.285 78.17 92.099 78.86 91.727 79.484C91.367 80.096 90.869 80.582 90.233 80.942C89.597 81.302 88.889 81.482 88.109 81.482H85.139V86H82.529ZM89.675 86L86.471 80.312L89.243 79.862L92.807 86.018L89.675 86ZM85.139 79.286H87.983C88.307 79.286 88.589 79.214 88.829 79.07C89.081 78.914 89.273 78.704 89.405 78.44C89.537 78.164 89.603 77.858 89.603 77.522C89.603 77.162 89.525 76.85 89.369 76.586C89.213 76.322 88.985 76.118 88.685 75.974C88.385 75.818 88.037 75.74 87.641 75.74H85.139V79.286ZM95.1325 86V73.4H97.5445L104.51 82.814H104.006C103.958 82.442 103.916 82.082 103.88 81.734C103.844 81.374 103.808 81.014 103.772 80.654C103.748 80.282 103.724 79.904 103.7 79.52C103.688 79.124 103.676 78.71 103.664 78.278C103.652 77.834 103.646 77.354 103.646 76.838V73.4H106.292V86H103.844L96.7345 76.496L97.4185 76.514C97.4785 77.138 97.5265 77.672 97.5625 78.116C97.6105 78.548 97.6465 78.926 97.6705 79.25C97.6945 79.574 97.7125 79.856 97.7245 80.096C97.7485 80.336 97.7605 80.564 97.7605 80.78C97.7725 80.996 97.7785 81.224 97.7785 81.464V86H95.1325ZM119.17 86.18C118.39 86.18 117.676 86.084 117.028 85.892C116.392 85.7 115.822 85.418 115.318 85.046C114.826 84.674 114.382 84.224 113.986 83.696L115.678 81.77C116.266 82.586 116.848 83.144 117.424 83.444C118.012 83.732 118.648 83.876 119.332 83.876C119.704 83.876 120.034 83.828 120.322 83.732C120.622 83.624 120.856 83.474 121.024 83.282C121.192 83.09 121.276 82.862 121.276 82.598C121.276 82.406 121.234 82.232 121.15 82.076C121.066 81.908 120.946 81.764 120.79 81.644C120.634 81.512 120.448 81.398 120.232 81.302C120.016 81.194 119.776 81.104 119.512 81.032C119.248 80.948 118.96 80.882 118.648 80.834C117.976 80.678 117.388 80.492 116.884 80.276C116.38 80.048 115.96 79.772 115.624 79.448C115.288 79.112 115.036 78.734 114.868 78.314C114.712 77.894 114.634 77.42 114.634 76.892C114.634 76.352 114.754 75.854 114.994 75.398C115.234 74.93 115.564 74.528 115.984 74.192C116.416 73.856 116.908 73.598 117.46 73.418C118.024 73.238 118.618 73.148 119.242 73.148C120.01 73.148 120.682 73.238 121.258 73.418C121.834 73.586 122.332 73.832 122.752 74.156C123.184 74.48 123.544 74.876 123.832 75.344L122.122 77C121.87 76.664 121.594 76.382 121.294 76.154C121.006 75.926 120.688 75.758 120.34 75.65C120.004 75.53 119.656 75.47 119.296 75.47C118.9 75.47 118.558 75.524 118.27 75.632C117.982 75.728 117.754 75.872 117.586 76.064C117.43 76.256 117.352 76.49 117.352 76.766C117.352 76.982 117.406 77.174 117.514 77.342C117.622 77.51 117.778 77.66 117.982 77.792C118.186 77.912 118.432 78.02 118.72 78.116C119.008 78.212 119.326 78.296 119.674 78.368C120.334 78.5 120.928 78.674 121.456 78.89C121.984 79.106 122.434 79.37 122.806 79.682C123.19 79.982 123.484 80.342 123.688 80.762C123.892 81.17 123.994 81.632 123.994 82.148C123.994 83 123.79 83.726 123.382 84.326C122.974 84.926 122.41 85.388 121.69 85.712C120.97 86.024 120.13 86.18 119.17 86.18ZM129.067 86V75.83H125.395V73.4H135.547V75.83H131.767V86H129.067ZM137.777 86V73.4H143.357C144.137 73.4 144.845 73.58 145.481 73.94C146.117 74.288 146.615 74.762 146.975 75.362C147.347 75.962 147.533 76.646 147.533 77.414C147.533 78.17 147.347 78.86 146.975 79.484C146.615 80.096 146.117 80.582 145.481 80.942C144.845 81.302 144.137 81.482 143.357 81.482H140.387V86H137.777ZM144.923 86L141.719 80.312L144.491 79.862L148.055 86.018L144.923 86ZM140.387 79.286H143.231C143.555 79.286 143.837 79.214 144.077 79.07C144.329 78.914 144.521 78.704 144.653 78.44C144.785 78.164 144.851 77.858 144.851 77.522C144.851 77.162 144.773 76.85 144.617 76.586C144.461 76.322 144.233 76.118 143.933 75.974C143.633 75.818 143.285 75.74 142.889 75.74H140.387V79.286ZM148.887 86L153.819 73.4H156.231L161.145 86H158.373L155.835 79.214C155.763 79.022 155.673 78.776 155.565 78.476C155.469 78.176 155.367 77.858 155.259 77.522C155.151 77.186 155.049 76.868 154.953 76.568C154.857 76.256 154.785 75.998 154.737 75.794L155.223 75.776C155.151 76.052 155.067 76.34 154.971 76.64C154.887 76.928 154.797 77.228 154.701 77.54C154.605 77.84 154.503 78.134 154.395 78.422C154.287 78.71 154.185 78.992 154.089 79.268L151.551 86H148.887ZM151.173 83.354L152.055 81.176H157.833L158.733 83.354H151.173ZM164.645 86V75.83H160.973V73.4H171.125V75.83H167.345V86H164.645ZM173.355 86V73.4H181.869V75.776H175.983V83.624H181.995V86H173.355ZM174.615 80.726V78.422H181.005V80.726H174.615ZM190.559 86.18C189.587 86.18 188.693 86.018 187.877 85.694C187.073 85.358 186.377 84.896 185.789 84.308C185.201 83.72 184.745 83.03 184.421 82.238C184.109 81.446 183.953 80.588 183.953 79.664C183.953 78.74 184.115 77.888 184.439 77.108C184.775 76.316 185.243 75.632 185.843 75.056C186.455 74.468 187.169 74.012 187.985 73.688C188.801 73.364 189.695 73.202 190.667 73.202C191.339 73.202 191.981 73.292 192.593 73.472C193.205 73.652 193.763 73.898 194.267 74.21C194.771 74.522 195.191 74.882 195.527 75.29L193.853 77.054C193.541 76.754 193.211 76.502 192.863 76.298C192.527 76.082 192.173 75.92 191.801 75.812C191.429 75.692 191.045 75.632 190.649 75.632C190.085 75.632 189.563 75.734 189.083 75.938C188.615 76.142 188.201 76.424 187.841 76.784C187.481 77.144 187.199 77.57 186.995 78.062C186.803 78.554 186.707 79.088 186.707 79.664C186.707 80.228 186.809 80.762 187.013 81.266C187.229 81.758 187.517 82.19 187.877 82.562C188.249 82.922 188.681 83.21 189.173 83.426C189.665 83.63 190.193 83.732 190.757 83.732C191.153 83.732 191.531 83.672 191.891 83.552C192.251 83.432 192.563 83.264 192.827 83.048C193.103 82.82 193.313 82.556 193.457 82.256C193.613 81.956 193.691 81.638 193.691 81.302V80.87L194.051 81.374H190.451V79.124H196.283C196.295 79.256 196.307 79.418 196.319 79.61C196.343 79.802 196.355 79.994 196.355 80.186C196.367 80.366 196.373 80.51 196.373 80.618C196.373 81.434 196.223 82.184 195.923 82.868C195.635 83.552 195.227 84.14 194.699 84.632C194.183 85.124 193.571 85.508 192.863 85.784C192.155 86.048 191.387 86.18 190.559 86.18ZM198.256 86V83.678H200.362V75.722H198.256V73.4H205.168V75.722H203.062V83.678H205.168V86H198.256ZM208.125 86V73.4H216.639V75.776H210.753V83.624H216.765V86H208.125ZM209.385 80.726V78.422H215.775V80.726H209.385ZM223.636 86.18C222.856 86.18 222.142 86.084 221.494 85.892C220.858 85.7 220.288 85.418 219.784 85.046C219.292 84.674 218.848 84.224 218.452 83.696L220.144 81.77C220.732 82.586 221.314 83.144 221.89 83.444C222.478 83.732 223.114 83.876 223.798 83.876C224.17 83.876 224.5 83.828 224.788 83.732C225.088 83.624 225.322 83.474 225.49 83.282C225.658 83.09 225.742 82.862 225.742 82.598C225.742 82.406 225.7 82.232 225.616 82.076C225.532 81.908 225.412 81.764 225.256 81.644C225.1 81.512 224.914 81.398 224.698 81.302C224.482 81.194 224.242 81.104 223.978 81.032C223.714 80.948 223.426 80.882 223.114 80.834C222.442 80.678 221.854 80.492 221.35 80.276C220.846 80.048 220.426 79.772 220.09 79.448C219.754 79.112 219.502 78.734 219.334 78.314C219.178 77.894 219.1 77.42 219.1 76.892C219.1 76.352 219.22 75.854 219.46 75.398C219.7 74.93 220.03 74.528 220.45 74.192C220.882 73.856 221.374 73.598 221.926 73.418C222.49 73.238 223.084 73.148 223.708 73.148C224.476 73.148 225.148 73.238 225.724 73.418C226.3 73.586 226.798 73.832 227.218 74.156C227.65 74.48 228.01 74.876 228.298 75.344L226.588 77C226.336 76.664 226.06 76.382 225.76 76.154C225.472 75.926 225.154 75.758 224.806 75.65C224.47 75.53 224.122 75.47 223.762 75.47C223.366 75.47 223.024 75.524 222.736 75.632C222.448 75.728 222.22 75.872 222.052 76.064C221.896 76.256 221.818 76.49 221.818 76.766C221.818 76.982 221.872 77.174 221.98 77.342C222.088 77.51 222.244 77.66 222.448 77.792C222.652 77.912 222.898 78.02 223.186 78.116C223.474 78.212 223.792 78.296 224.14 78.368C224.8 78.5 225.394 78.674 225.922 78.89C226.45 79.106 226.9 79.37 227.272 79.682C227.656 79.982 227.95 80.342 228.154 80.762C228.358 81.17 228.46 81.632 228.46 82.148C228.46 83 228.256 83.726 227.848 84.326C227.44 84.926 226.876 85.388 226.156 85.712C225.436 86.024 224.596 86.18 223.636 86.18ZM236.101 86V83.678H238.207V75.722H236.101V73.4H243.013V75.722H240.907V83.678H243.013V86H236.101ZM245.97 86V73.4H248.382L255.348 82.814H254.844C254.796 82.442 254.754 82.082 254.718 81.734C254.682 81.374 254.646 81.014 254.61 80.654C254.586 80.282 254.562 79.904 254.538 79.52C254.526 79.124 254.514 78.71 254.502 78.278C254.49 77.834 254.484 77.354 254.484 76.838V73.4H257.13V86H254.682L247.572 76.496L248.256 76.514C248.316 77.138 248.364 77.672 248.4 78.116C248.448 78.548 248.484 78.926 248.508 79.25C248.532 79.574 248.55 79.856 248.562 80.096C248.586 80.336 248.598 80.564 248.598 80.78C248.61 80.996 248.616 81.224 248.616 81.464V86H245.97ZM263.03 86V75.83H259.358V73.4H269.51V75.83H265.73V86H263.03ZM276.775 86.18C275.851 86.18 274.999 86.018 274.219 85.694C273.439 85.37 272.755 84.92 272.167 84.344C271.591 83.756 271.147 83.066 270.835 82.274C270.523 81.47 270.367 80.6 270.367 79.664C270.367 78.716 270.523 77.852 270.835 77.072C271.147 76.28 271.591 75.59 272.167 75.002C272.755 74.414 273.439 73.958 274.219 73.634C274.999 73.31 275.851 73.148 276.775 73.148C277.711 73.148 278.563 73.31 279.331 73.634C280.111 73.958 280.789 74.414 281.365 75.002C281.953 75.59 282.403 76.28 282.715 77.072C283.027 77.864 283.183 78.728 283.183 79.664C283.183 80.6 283.027 81.464 282.715 82.256C282.403 83.048 281.953 83.738 281.365 84.326C280.789 84.914 280.111 85.37 279.331 85.694C278.563 86.018 277.711 86.18 276.775 86.18ZM276.775 83.624C277.303 83.624 277.789 83.528 278.233 83.336C278.689 83.144 279.079 82.868 279.403 82.508C279.727 82.148 279.979 81.728 280.159 81.248C280.351 80.768 280.447 80.24 280.447 79.664C280.447 79.088 280.351 78.56 280.159 78.08C279.979 77.6 279.727 77.186 279.403 76.838C279.079 76.478 278.689 76.202 278.233 76.01C277.789 75.806 277.303 75.704 276.775 75.704C276.247 75.704 275.761 75.806 275.317 76.01C274.873 76.202 274.483 76.478 274.147 76.838C273.811 77.186 273.553 77.6 273.373 78.08C273.205 78.56 273.121 79.088 273.121 79.664C273.121 80.24 273.205 80.768 273.373 81.248C273.553 81.728 273.811 82.148 274.147 82.508C274.483 82.868 274.873 83.144 275.317 83.336C275.761 83.528 276.247 83.624 276.775 83.624ZM291.146 86V73.4H296.492C297.236 73.4 297.908 73.58 298.508 73.94C299.12 74.288 299.6 74.768 299.948 75.38C300.308 75.992 300.488 76.682 300.488 77.45C300.488 78.23 300.308 78.932 299.948 79.556C299.6 80.18 299.12 80.678 298.508 81.05C297.908 81.41 297.236 81.59 296.492 81.59H293.846V86H291.146ZM293.81 79.16H296.186C296.474 79.16 296.732 79.088 296.96 78.944C297.188 78.788 297.368 78.584 297.5 78.332C297.644 78.08 297.716 77.792 297.716 77.468C297.716 77.144 297.644 76.862 297.5 76.622C297.368 76.37 297.188 76.178 296.96 76.046C296.732 75.902 296.474 75.83 296.186 75.83H293.81V79.16ZM302.906 86V73.4H308.486C309.266 73.4 309.974 73.58 310.61 73.94C311.246 74.288 311.744 74.762 312.104 75.362C312.476 75.962 312.662 76.646 312.662 77.414C312.662 78.17 312.476 78.86 312.104 79.484C311.744 80.096 311.246 80.582 310.61 80.942C309.974 81.302 309.266 81.482 308.486 81.482H305.516V86H302.906ZM310.052 86L306.848 80.312L309.62 79.862L313.184 86.018L310.052 86ZM305.516 79.286H308.36C308.684 79.286 308.966 79.214 309.206 79.07C309.458 78.914 309.65 78.704 309.782 78.44C309.914 78.164 309.98 77.858 309.98 77.522C309.98 77.162 309.902 76.85 309.746 76.586C309.59 76.322 309.362 76.118 309.062 75.974C308.762 75.818 308.414 75.74 308.018 75.74H305.516V79.286ZM320.914 86.18C319.99 86.18 319.138 86.018 318.358 85.694C317.578 85.37 316.894 84.92 316.306 84.344C315.73 83.756 315.286 83.066 314.974 82.274C314.662 81.47 314.506 80.6 314.506 79.664C314.506 78.716 314.662 77.852 314.974 77.072C315.286 76.28 315.73 75.59 316.306 75.002C316.894 74.414 317.578 73.958 318.358 73.634C319.138 73.31 319.99 73.148 320.914 73.148C321.85 73.148 322.702 73.31 323.47 73.634C324.25 73.958 324.928 74.414 325.504 75.002C326.092 75.59 326.542 76.28 326.854 77.072C327.166 77.864 327.322 78.728 327.322 79.664C327.322 80.6 327.166 81.464 326.854 82.256C326.542 83.048 326.092 83.738 325.504 84.326C324.928 84.914 324.25 85.37 323.47 85.694C322.702 86.018 321.85 86.18 320.914 86.18ZM320.914 83.624C321.442 83.624 321.928 83.528 322.372 83.336C322.828 83.144 323.218 82.868 323.542 82.508C323.866 82.148 324.118 81.728 324.298 81.248C324.49 80.768 324.586 80.24 324.586 79.664C324.586 79.088 324.49 78.56 324.298 78.08C324.118 77.6 323.866 77.186 323.542 76.838C323.218 76.478 322.828 76.202 322.372 76.01C321.928 75.806 321.442 75.704 320.914 75.704C320.386 75.704 319.9 75.806 319.456 76.01C319.012 76.202 318.622 76.478 318.286 76.838C317.95 77.186 317.692 77.6 317.512 78.08C317.344 78.56 317.26 79.088 317.26 79.664C317.26 80.24 317.344 80.768 317.512 81.248C317.692 81.728 317.95 82.148 318.286 82.508C318.622 82.868 319.012 83.144 319.456 83.336C319.9 83.528 320.386 83.624 320.914 83.624ZM329.765 86V73.4H332.465V86H329.765ZM331.007 80.996V78.674H337.523V80.996H331.007ZM331.007 75.83V73.4H338.279V75.83H331.007ZM340.48 86V83.678H342.586V75.722H340.48V73.4H347.392V75.722H345.286V83.678H347.392V86H340.48ZM352.977 86V75.83H349.305V73.4H359.457V75.83H355.677V86H352.977ZM365.773 86.18C364.993 86.18 364.279 86.084 363.631 85.892C362.995 85.7 362.425 85.418 361.921 85.046C361.429 84.674 360.985 84.224 360.589 83.696L362.281 81.77C362.869 82.586 363.451 83.144 364.027 83.444C364.615 83.732 365.251 83.876 365.935 83.876C366.307 83.876 366.637 83.828 366.925 83.732C367.225 83.624 367.459 83.474 367.627 83.282C367.795 83.09 367.879 82.862 367.879 82.598C367.879 82.406 367.837 82.232 367.753 82.076C367.669 81.908 367.549 81.764 367.393 81.644C367.237 81.512 367.051 81.398 366.835 81.302C366.619 81.194 366.379 81.104 366.115 81.032C365.851 80.948 365.563 80.882 365.251 80.834C364.579 80.678 363.991 80.492 363.487 80.276C362.983 80.048 362.563 79.772 362.227 79.448C361.891 79.112 361.639 78.734 361.471 78.314C361.315 77.894 361.237 77.42 361.237 76.892C361.237 76.352 361.357 75.854 361.597 75.398C361.837 74.93 362.167 74.528 362.587 74.192C363.019 73.856 363.511 73.598 364.063 73.418C364.627 73.238 365.221 73.148 365.845 73.148C366.613 73.148 367.285 73.238 367.861 73.418C368.437 73.586 368.935 73.832 369.355 74.156C369.787 74.48 370.147 74.876 370.435 75.344L368.725 77C368.473 76.664 368.197 76.382 367.897 76.154C367.609 75.926 367.291 75.758 366.943 75.65C366.607 75.53 366.259 75.47 365.899 75.47C365.503 75.47 365.161 75.524 364.873 75.632C364.585 75.728 364.357 75.872 364.189 76.064C364.033 76.256 363.955 76.49 363.955 76.766C363.955 76.982 364.009 77.174 364.117 77.342C364.225 77.51 364.381 77.66 364.585 77.792C364.789 77.912 365.035 78.02 365.323 78.116C365.611 78.212 365.929 78.296 366.277 78.368C366.937 78.5 367.531 78.674 368.059 78.89C368.587 79.106 369.037 79.37 369.409 79.682C369.793 79.982 370.087 80.342 370.291 80.762C370.495 81.17 370.597 81.632 370.597 82.148C370.597 83 370.393 83.726 369.985 84.326C369.577 84.926 369.013 85.388 368.293 85.712C367.573 86.024 366.733 86.18 365.773 86.18ZM377.932 81.95V79.682H392.35V81.95H377.932ZM150.969 114V101.4H156.315C157.059 101.4 157.731 101.58 158.331 101.94C158.943 102.288 159.423 102.768 159.771 103.38C160.131 103.992 160.311 104.682 160.311 105.45C160.311 106.23 160.131 106.932 159.771 107.556C159.423 108.18 158.943 108.678 158.331 109.05C157.731 109.41 157.059 109.59 156.315 109.59H153.669V114H150.969ZM153.633 107.16H156.009C156.297 107.16 156.555 107.088 156.783 106.944C157.011 106.788 157.191 106.584 157.323 106.332C157.467 106.08 157.539 105.792 157.539 105.468C157.539 105.144 157.467 104.862 157.323 104.622C157.191 104.37 157.011 104.178 156.783 104.046C156.555 103.902 156.297 103.83 156.009 103.83H153.633V107.16ZM168.309 114.18C167.385 114.18 166.533 114.018 165.753 113.694C164.973 113.37 164.289 112.92 163.701 112.344C163.125 111.756 162.681 111.066 162.369 110.274C162.057 109.47 161.901 108.6 161.901 107.664C161.901 106.716 162.057 105.852 162.369 105.072C162.681 104.28 163.125 103.59 163.701 103.002C164.289 102.414 164.973 101.958 165.753 101.634C166.533 101.31 167.385 101.148 168.309 101.148C169.245 101.148 170.097 101.31 170.865 101.634C171.645 101.958 172.323 102.414 172.899 103.002C173.487 103.59 173.937 104.28 174.249 105.072C174.561 105.864 174.717 106.728 174.717 107.664C174.717 108.6 174.561 109.464 174.249 110.256C173.937 111.048 173.487 111.738 172.899 112.326C172.323 112.914 171.645 113.37 170.865 113.694C170.097 114.018 169.245 114.18 168.309 114.18ZM168.309 111.624C168.837 111.624 169.323 111.528 169.767 111.336C170.223 111.144 170.613 110.868 170.937 110.508C171.261 110.148 171.513 109.728 171.693 109.248C171.885 108.768 171.981 108.24 171.981 107.664C171.981 107.088 171.885 106.56 171.693 106.08C171.513 105.6 171.261 105.186 170.937 104.838C170.613 104.478 170.223 104.202 169.767 104.01C169.323 103.806 168.837 103.704 168.309 103.704C167.781 103.704 167.295 103.806 166.851 104.01C166.407 104.202 166.017 104.478 165.681 104.838C165.345 105.186 165.087 105.6 164.907 106.08C164.739 106.56 164.655 107.088 164.655 107.664C164.655 108.24 164.739 108.768 164.907 109.248C165.087 109.728 165.345 110.148 165.681 110.508C166.017 110.868 166.407 111.144 166.851 111.336C167.295 111.528 167.781 111.624 168.309 111.624ZM179.467 114L175.633 101.4H178.405L180.457 108.438C180.541 108.69 180.613 108.966 180.673 109.266C180.745 109.554 180.799 109.836 180.835 110.112C180.883 110.376 180.919 110.628 180.943 110.868C180.979 111.096 181.009 111.288 181.033 111.444L180.601 111.426C180.709 110.922 180.799 110.502 180.871 110.166C180.943 109.818 181.009 109.512 181.069 109.248C181.141 108.972 181.225 108.696 181.321 108.42L183.301 103.218H185.533L187.477 108.42C187.621 108.78 187.735 109.128 187.819 109.464C187.915 109.788 187.993 110.106 188.053 110.418C188.113 110.718 188.173 111.024 188.233 111.336L187.837 111.408C187.873 111.156 187.897 110.94 187.909 110.76C187.933 110.568 187.951 110.394 187.963 110.238C187.987 110.082 188.011 109.926 188.035 109.77C188.059 109.602 188.095 109.41 188.143 109.194C188.191 108.966 188.263 108.702 188.359 108.402L190.393 101.4H193.129L189.259 114H187.261L184.147 106.548L184.435 106.584L181.537 114H179.467ZM194.967 114V101.4H203.481V103.776H197.595V111.624H203.607V114H194.967ZM196.227 108.726V106.422H202.617V108.726H196.227ZM206.393 114V101.4H211.973C212.753 101.4 213.461 101.58 214.097 101.94C214.733 102.288 215.231 102.762 215.591 103.362C215.963 103.962 216.149 104.646 216.149 105.414C216.149 106.17 215.963 106.86 215.591 107.484C215.231 108.096 214.733 108.582 214.097 108.942C213.461 109.302 212.753 109.482 211.973 109.482H209.003V114H206.393ZM213.539 114L210.335 108.312L213.107 107.862L216.671 114.018L213.539 114ZM209.003 107.286H211.847C212.171 107.286 212.453 107.214 212.693 107.07C212.945 106.914 213.137 106.704 213.269 106.44C213.401 106.164 213.467 105.858 213.467 105.522C213.467 105.162 213.389 104.85 213.233 104.586C213.077 104.322 212.849 104.118 212.549 103.974C212.249 103.818 211.901 103.74 211.505 103.74H209.003V107.286ZM218.997 114V101.4H227.511V103.776H221.625V111.624H227.637V114H218.997ZM220.257 108.726V106.422H226.647V108.726H220.257ZM230.423 114V101.4H235.589C236.513 101.4 237.347 101.556 238.091 101.868C238.847 102.168 239.495 102.6 240.035 103.164C240.587 103.716 241.007 104.376 241.295 105.144C241.583 105.912 241.727 106.764 241.727 107.7C241.727 108.624 241.583 109.476 241.295 110.256C241.007 111.024 240.593 111.69 240.053 112.254C239.513 112.806 238.865 113.238 238.109 113.55C237.353 113.85 236.513 114 235.589 114H230.423ZM233.123 112.038L232.835 111.57H235.499C236.039 111.57 236.525 111.48 236.957 111.3C237.389 111.108 237.755 110.85 238.055 110.526C238.367 110.19 238.601 109.782 238.757 109.302C238.913 108.822 238.991 108.288 238.991 107.7C238.991 107.112 238.913 106.584 238.757 106.116C238.601 105.636 238.367 105.228 238.055 104.892C237.755 104.556 237.389 104.298 236.957 104.118C236.525 103.926 236.039 103.83 235.499 103.83H232.781L233.123 103.398V112.038ZM249.688 114V101.4H255.16C256 101.4 256.708 101.526 257.284 101.778C257.872 102.018 258.316 102.372 258.616 102.84C258.916 103.308 259.066 103.866 259.066 104.514C259.066 105.234 258.886 105.834 258.526 106.314C258.166 106.794 257.65 107.124 256.978 107.304L256.96 106.944C257.512 107.076 257.998 107.292 258.418 107.592C258.838 107.892 259.162 108.264 259.39 108.708C259.618 109.152 259.732 109.656 259.732 110.22C259.732 110.844 259.63 111.396 259.426 111.876C259.222 112.344 258.922 112.734 258.526 113.046C258.13 113.358 257.662 113.598 257.122 113.766C256.594 113.922 256 114 255.34 114H249.688ZM252.28 111.66H255.232C255.616 111.66 255.94 111.606 256.204 111.498C256.48 111.378 256.69 111.198 256.834 110.958C256.978 110.718 257.05 110.436 257.05 110.112C257.05 109.8 256.972 109.536 256.816 109.32C256.66 109.104 256.438 108.942 256.15 108.834C255.874 108.714 255.538 108.654 255.142 108.654H252.28V111.66ZM252.28 106.512H254.836C255.16 106.512 255.442 106.452 255.682 106.332C255.922 106.212 256.102 106.05 256.222 105.846C256.354 105.642 256.42 105.402 256.42 105.126C256.42 104.682 256.276 104.34 255.988 104.1C255.7 103.86 255.268 103.74 254.692 103.74H252.28V106.512ZM265.058 114V107.718L265.184 108.6L260.09 101.4H263.204L267.092 106.98L265.868 106.926L269.378 101.4H272.384L267.506 108.798L267.776 107.574V114H265.058ZM278.007 114L282.939 101.4H285.351L290.265 114H287.493L284.955 107.214C284.883 107.022 284.793 106.776 284.685 106.476C284.589 106.176 284.487 105.858 284.379 105.522C284.271 105.186 284.169 104.868 284.073 104.568C283.977 104.256 283.905 103.998 283.857 103.794L284.343 103.776C284.271 104.052 284.187 104.34 284.091 104.64C284.007 104.928 283.917 105.228 283.821 105.54C283.725 105.84 283.623 106.134 283.515 106.422C283.407 106.71 283.305 106.992 283.209 107.268L280.671 114H278.007ZM280.293 111.354L281.175 109.176H286.953L287.853 111.354H280.293ZM291.71 114V111.678H293.816V103.722H291.71V101.4H298.622V103.722H296.516V111.678H298.622V114H291.71Z" fill="black"/>
<path d="M24 49H19C16.7909 49 15 50.7909 15 53V168C15 170.209 16.7909 172 19 172H24V49Z" fill="black"/>
<path d="M428 49H433C435.209 49 437 50.7909 437 53V168C437 170.209 435.209 172 433 172H428V49Z" fill="black"/>
<path d="M445 69.5C446.381 69.5 447.5 70.6193 447.5 72V149C447.5 150.381 446.381 151.5 445 151.5H437.5V69.5H445Z" fill="white" stroke="black" stroke-width="3"/>
<path d="M6 69.5C4.61929 69.5 3.5 70.6193 3.5 72V149C3.5 150.381 4.61929 151.5 6 151.5H14.5V69.5H6Z" fill="white" stroke="black" stroke-width="3"/>
</svg>
