<svg width="484" height="115" viewBox="0 0 484 115" fill="none" xmlns="http://www.w3.org/2000/svg">
<path d="M480 73.5C480 75.7866 478.599 78.1928 475.516 80.6827C472.447 83.1617 467.859 85.5976 461.854 87.9438C449.856 92.6322 432.434 96.8744 410.835 100.444C367.654 107.581 307.961 112 242 112C176.039 112 116.346 107.581 73.1645 100.444C51.5656 96.8744 34.1445 92.6322 22.1458 87.9438C16.1413 85.5976 11.5533 83.1617 8.48395 80.6827C5.40117 78.1928 4 75.7866 4 73.5C4 71.2134 5.40117 68.8072 8.48395 66.3173C11.5533 63.8383 16.1413 61.4024 22.1458 59.0562C34.1445 54.3678 51.5656 50.1256 73.1645 46.5559C116.346 39.4192 176.039 35 242 35C307.961 35 367.654 39.4192 410.835 46.5559C432.434 50.1256 449.856 54.3678 461.854 59.0562C467.859 61.4024 472.447 63.8383 475.516 66.3173C478.599 68.8072 480 71.2134 480 73.5Z" stroke="black" stroke-width="2"/>
<path d="M3 41.5C3 63.3152 110.004 81 242 81V111C110.004 111 3 93.3152 3 71.5V41.5Z" fill="#CCFF00"/>
<path d="M242 81V111C373.996 111 481 93.3152 481 71.5V41.5C481 63.3152 373.996 81 242 81Z" fill="#CCFF00"/>
<path d="M480 41.5C480 43.7866 478.599 46.1928 475.516 48.6827C472.447 51.1617 467.859 53.5976 461.854 55.9438C449.856 60.6322 432.434 64.8744 410.835 68.4441C367.654 75.5808 307.961 80 242 80C176.039 80 116.346 75.5808 73.1645 68.4441C51.5656 64.8744 34.1445 60.6322 22.1458 55.9438C16.1413 53.5976 11.5533 51.1617 8.48395 48.6827C5.40117 46.1928 4 43.7866 4 41.5C4 39.2134 5.40117 36.8072 8.48395 34.3173C11.5533 31.8383 16.1413 29.4024 22.1458 27.0562C34.1445 22.3678 51.5656 18.1256 73.1645 14.5559C116.346 7.41916 176.039 3 242 3C307.961 3 367.654 7.41916 410.835 14.5559C432.434 18.1256 449.856 22.3678 461.854 27.0562C467.859 29.4024 472.447 31.8383 475.516 34.3173C478.599 36.8072 480 39.2134 480 41.5Z" fill="#FBFBFB" stroke="black" stroke-width="2"/>
</svg>
