<svg width="64" height="64" viewBox="0 0 64 64" fill="none" xmlns="http://www.w3.org/2000/svg">
<rect x="1" y="1" width="62" height="62" rx="31" fill="black"/>
<rect x="1" y="1" width="62" height="62" rx="31" stroke="black" stroke-width="2"/>
<path d="M4.21094 22.4004C4.21094 12.3546 12.3546 4.21094 22.4004 4.21094H41.6004C51.6462 4.21094 59.7899 12.3546 59.7899 22.4004V41.6004C59.7899 51.6462 51.6462 59.7899 41.6004 59.7899H22.4004C12.3546 59.7899 4.21094 51.6462 4.21094 41.6004V22.4004Z" fill="black"/>
<path d="M43.4311 15.4888C44.9266 13.9933 47.3513 13.9933 48.8469 15.4888C50.3424 16.9843 50.3424 19.4091 48.8469 20.9046C47.3513 22.4001 44.9266 22.4001 43.4311 20.9046C41.9356 19.4091 41.9356 16.9843 43.4311 15.4888Z" fill="#CCFF00"/>
<path d="M15.1133 29.2957C15.1133 21.8933 21.1142 15.8924 28.5166 15.8924H36.5568C37.9861 15.8924 39.1979 16.9434 39.4001 18.3584L39.5337 19.2938C39.9549 22.2423 42.2716 24.5591 45.2202 24.9803L46.1556 25.1139C47.5706 25.3161 48.6216 26.5242 48.6216 27.9535C48.6216 29.8842 48.6216 32.7693 48.6216 35.9953C48.6216 43.3978 42.6207 49.4007 35.2183 49.4007H28.5166C21.1141 49.4007 15.1133 43.3998 15.1133 35.9974V29.2957Z" fill="#CCFF00"/>
<path d="M37.1019 27.9415V34.6556C37.1019 34.9729 37.1996 35.2171 37.3949 35.3636C37.5902 35.5345 37.8344 35.6077 38.1518 35.6077C38.6889 35.6077 39.1283 35.2415 39.4457 34.4847C39.7387 33.7278 39.9096 32.8245 39.9096 31.799C39.9096 29.675 39.1528 27.9415 37.6635 26.6231C36.1742 25.3048 34.3187 24.6456 32.1213 24.6456C29.7531 24.6456 27.7755 25.4268 26.1886 26.9405C24.6016 28.4542 23.8204 30.383 23.8204 32.7024C23.8204 35.0218 24.5772 36.9261 26.1398 38.391C27.7023 39.8559 29.6555 40.5883 32.0481 40.5883C33.7421 40.5883 35.3528 40.1219 36.8802 39.1891C37.4101 38.8655 38.1178 38.991 38.4469 39.5175V39.5175C38.7258 39.9638 38.6374 40.5529 38.2053 40.8532C36.4929 42.0438 34.4594 42.6391 32.0725 42.6391C28.9963 42.6391 26.4816 41.7114 24.5284 39.8559C22.5508 38.0004 21.5742 35.6566 21.5742 32.7756C21.5742 29.8459 22.5752 27.4288 24.6016 25.5001C26.628 23.5713 29.1428 22.5947 32.1213 22.5947C34.929 22.5947 37.2972 23.4737 39.226 25.1827C41.1548 26.8917 42.1313 29.089 42.1313 31.7502C42.1313 32.4827 42.0337 33.1663 41.8872 33.801C41.7163 34.4358 41.4477 35.0706 41.1059 35.681C40.7641 36.2913 40.2514 36.7796 39.5922 37.1214C38.9086 37.4877 38.1273 37.6586 37.224 37.6586C35.7103 37.6586 34.6849 37.1703 34.1478 36.1693C33.4153 37.1458 32.3411 37.6341 30.925 37.6341C29.5578 37.6341 28.4347 37.1947 27.5558 36.2913C26.6769 35.4124 26.2374 34.1917 26.2374 32.678C26.2374 31.1643 26.6769 29.9679 27.5802 29.0646C28.4591 28.1857 29.5822 27.7218 30.925 27.7218C32.0969 27.7218 33.0491 28.088 33.7815 28.796V27.9415H37.1019ZM31.9016 34.6311C32.4143 34.6311 32.8538 34.4602 33.22 34.094C33.5862 33.7278 33.7815 33.2395 33.7815 32.6291C33.7815 32.0432 33.5862 31.5793 33.22 31.2131C32.8538 30.8713 32.4143 30.676 31.9016 30.676C31.3645 30.676 30.925 30.8713 30.5588 31.2131C30.1682 31.5793 29.9973 32.0432 29.9973 32.6291C29.9973 33.2395 30.1682 33.7278 30.5588 34.094C30.925 34.4602 31.3645 34.6311 31.9016 34.6311Z" fill="black"/>
</svg>
