<svg width="10" height="10" viewBox="0 0 10 10" fill="none" xmlns="http://www.w3.org/2000/svg">
<g clip-path="url(#clip0_3209_4400)">
<path d="M7.43439 1.65701C7.76676 1.6231 8.05673 1.65023 8.3043 1.73841C8.55188 1.82658 8.75876 1.95037 8.92494 2.10977C9.09112 2.26917 9.21152 2.454 9.28613 2.66428C9.36074 2.87455 9.38618 3.08312 9.36244 3.29C9.3387 3.49688 9.26748 3.69358 9.14878 3.88011C9.03007 4.06664 8.85881 4.21417 8.63497 4.3227C8.33652 4.47192 8.04486 4.60589 7.75997 4.72459C7.47509 4.84329 7.20208 4.94164 6.94094 5.01964C6.67979 5.09765 6.4373 5.15021 6.21347 5.17735C5.98963 5.20448 5.78954 5.19769 5.61318 5.157C5.525 5.56397 5.45039 6.00995 5.38934 6.49493C5.3283 6.97991 5.29777 7.47676 5.29777 7.98547C5.29777 8.22288 5.30286 8.46028 5.31304 8.69768C5.32321 8.93508 5.33508 9.15214 5.34865 9.34884C5.36221 9.57268 5.37917 9.78973 5.39952 10H3.91406C3.92084 9.87112 3.93102 9.70155 3.94458 9.49128C3.95136 9.31493 3.95815 9.08431 3.96493 8.79942C3.97171 8.51454 3.9751 8.16522 3.9751 7.75146C3.9751 7.2224 4.00902 6.71707 4.07685 6.23548C4.14468 5.75389 4.22268 5.31979 4.31086 4.93316C4.04632 4.99421 3.76483 4.99082 3.46639 4.92299C3.16794 4.85516 2.86949 4.74154 2.57104 4.58215C2.27259 4.42275 1.98432 4.22604 1.70622 3.99203C1.42812 3.75802 1.18054 3.50536 0.963488 3.23404C0.821047 3.05768 0.726086 2.88133 0.678606 2.70497C0.631125 2.52862 0.622647 2.35565 0.65317 2.18608C0.683693 2.01651 0.744739 1.85711 0.836309 1.70788C0.927878 1.55866 1.03471 1.423 1.1568 1.30091C1.26533 1.19916 1.3942 1.12116 1.54343 1.0669C1.69265 1.01263 1.85375 0.982111 2.02671 0.975329C2.19968 0.968546 2.37603 0.982111 2.55578 1.01603C2.73553 1.04994 2.91019 1.1042 3.07976 1.17882C3.24933 1.26021 3.43077 1.37043 3.62409 1.50948C3.8174 1.64853 4.00393 1.80793 4.18368 1.98768C4.36343 2.16743 4.52961 2.35904 4.68222 2.56253C4.83484 2.76602 4.96202 2.96951 5.06376 3.17299C5.17229 2.98307 5.31473 2.80163 5.49109 2.62866C5.66744 2.4557 5.86245 2.30139 6.07611 2.16573C6.28977 2.03007 6.51361 1.91646 6.74762 1.82489C6.98163 1.73332 7.21056 1.67736 7.43439 1.65701Z" fill="black"/>
</g>
<defs>
<clipPath id="clip0_3209_4400">
<rect width="10" height="10" fill="white"/>
</clipPath>
</defs>
</svg>
