<svg width="126" height="86" viewBox="0 0 126 86" fill="none" xmlns="http://www.w3.org/2000/svg">
<path d="M118.525 57.0025C118.525 59.2516 117.082 61.4962 114.231 63.6267C111.39 65.7495 107.243 67.6854 102.067 69.3212C91.7223 72.5906 77.3961 74.6218 61.5467 74.6218C45.6972 74.6218 31.371 72.5906 21.0263 69.3212C15.8506 67.6854 11.7035 65.7495 8.86251 63.6267C6.01131 61.4962 4.56836 59.2516 4.56836 57.0025C4.56836 54.7535 6.01131 52.5089 8.86251 50.3784C11.7035 48.2555 15.8506 46.3197 21.0263 44.6839C31.371 41.4145 45.6972 39.3833 61.5467 39.3833C77.3961 39.3833 91.7223 41.4145 102.067 44.6839C107.243 46.3197 111.39 48.2555 114.231 50.3784C117.082 52.5089 118.525 54.7535 118.525 57.0025Z" stroke="#0D0D0D" stroke-width="1.13672"/>
<path d="M99.2006 57.4288C99.2006 58.6965 98.319 60.0244 96.4307 61.3307C94.5597 62.625 91.8152 63.8134 88.3726 64.8207C81.495 66.833 71.9602 68.0856 61.4045 68.0856C50.8488 68.0856 41.3139 66.833 34.4363 64.8207C30.9938 63.8134 28.2493 62.625 26.3783 61.3307C24.49 60.0244 23.6084 58.6965 23.6084 57.4288C23.6084 56.161 24.49 54.8331 26.3783 53.5269C28.2493 52.2326 30.9938 51.0441 34.4363 50.0369C41.3139 48.0245 50.8488 46.772 61.4045 46.772C71.9602 46.772 81.495 48.0245 88.3726 50.0369C91.8152 51.0441 94.5597 52.2326 96.4307 53.5269C98.319 54.8331 99.2006 56.161 99.2006 57.4288Z" stroke="black" stroke-width="1.13672"/>
<circle cx="3.26808" cy="3.26808" r="3.26808" transform="matrix(-1 0 0 1 121.621 53.0239)" fill="black"/>
<circle cx="2.9839" cy="2.9839" r="2.9839" transform="matrix(-1 0 0 1 28.9785 55.2969)" fill="black"/>
<path d="M60.5978 52.8838C47.571 52.8838 37.7041 49.7161 37.7041 45.8411V57.1867C37.7041 61.0618 47.571 64.2295 60.5978 64.2295C73.6245 64.2295 83.7041 61.2161 83.7041 57.3411V45.9954C83.7041 49.8705 73.6245 52.8838 60.5978 52.8838Z" fill="black" stroke="black" stroke-linejoin="round"/>
<path d="M83.6848 46.0164C83.6848 46.7408 83.1888 47.5331 82.0436 48.3385C80.9121 49.1343 79.2422 49.8713 77.1338 50.4985C72.9233 51.751 67.0768 52.5328 60.5978 52.5328C54.1187 52.5328 48.2722 51.751 44.0618 50.4985C41.9533 49.8713 40.2835 49.1343 39.152 48.3385C38.0067 47.5331 37.5107 46.7408 37.5107 46.0164C37.5107 45.292 38.0067 44.4997 39.152 43.6943C40.2835 42.8985 41.9533 42.1615 44.0618 41.5343C48.2722 40.2818 54.1187 39.5 60.5978 39.5C67.0768 39.5 72.9233 40.2818 77.1338 41.5343C79.2422 42.1615 80.9121 42.8985 82.0436 43.6943C83.1888 44.4997 83.6848 45.292 83.6848 46.0164Z" fill="black" stroke="#FCFCFC"/>
<path d="M77.3644 46.2466C77.3644 48.5224 69.8577 50.3672 60.5977 50.3672C51.3378 50.3672 43.8311 48.5224 43.8311 46.2466C43.8311 43.9708 51.3378 42.126 60.5977 42.126C69.8577 42.126 77.3644 43.9708 77.3644 46.2466Z" stroke="white" stroke-width="1.13672"/>
<path d="M60.5978 37.8838C47.571 37.8838 37.7041 34.7161 37.7041 30.8411V42.1867C37.7041 46.0618 47.571 49.2295 60.5978 49.2295C73.6245 49.2295 83.7041 46.2161 83.7041 42.3411V30.9954C83.7041 34.8705 73.6245 37.8838 60.5978 37.8838Z" fill="black" stroke="black" stroke-linejoin="round"/>
<path d="M83.6848 31.0164C83.6848 31.7408 83.1888 32.5331 82.0436 33.3385C80.9121 34.1343 79.2422 34.8713 77.1338 35.4985C72.9233 36.751 67.0768 37.5328 60.5978 37.5328C54.1187 37.5328 48.2722 36.751 44.0618 35.4985C41.9533 34.8713 40.2835 34.1343 39.152 33.3385C38.0067 32.5331 37.5107 31.7408 37.5107 31.0164C37.5107 30.292 38.0067 29.4997 39.152 28.6943C40.2835 27.8985 41.9533 27.1615 44.0618 26.5343C48.2722 25.2818 54.1187 24.5 60.5978 24.5C67.0768 24.5 72.9233 25.2818 77.1338 26.5343C79.2422 27.1615 80.9121 27.8985 82.0436 28.6943C83.1888 29.4997 83.6848 30.292 83.6848 31.0164Z" fill="black" stroke="#FCFCFC"/>
<path d="M77.3644 31.2466C77.3644 33.5224 69.8577 35.3672 60.5977 35.3672C51.3378 35.3672 43.8311 33.5224 43.8311 31.2466C43.8311 28.9708 51.3378 27.126 60.5977 27.126C69.8577 27.126 77.3644 28.9708 77.3644 31.2466Z" stroke="white" stroke-width="1.13672"/>
<path d="M60.5978 21.8838C47.571 21.8838 37.7041 18.7161 37.7041 14.8411V26.1867C37.7041 30.0618 47.571 33.2295 60.5978 33.2295C73.6245 33.2295 83.7041 30.2161 83.7041 26.3411V14.9954C83.7041 18.8705 73.6245 21.8838 60.5978 21.8838Z" fill="black" stroke="black" stroke-linejoin="round"/>
<path d="M83.6848 15.0164C83.6848 15.7408 83.1888 16.5331 82.0436 17.3385C80.9121 18.1343 79.2422 18.8713 77.1338 19.4985C72.9233 20.751 67.0768 21.5328 60.5978 21.5328C54.1187 21.5328 48.2722 20.751 44.0618 19.4985C41.9533 18.8713 40.2835 18.1343 39.152 17.3385C38.0067 16.5331 37.5107 15.7408 37.5107 15.0164C37.5107 14.292 38.0067 13.4997 39.152 12.6943C40.2835 11.8985 41.9533 11.1615 44.0618 10.5343C48.2722 9.28182 54.1187 8.5 60.5978 8.5C67.0768 8.5 72.9233 9.28182 77.1338 10.5343C79.2422 11.1615 80.9121 11.8985 82.0436 12.6943C83.1888 13.4997 83.6848 14.292 83.6848 15.0164Z" fill="black" stroke="#FCFCFC"/>
<path d="M77.3644 15.2466C77.3644 17.5224 69.8577 19.3672 60.5977 19.3672C51.3378 19.3672 43.8311 17.5224 43.8311 15.2466C43.8311 12.9708 51.3378 11.126 60.5977 11.126C69.8577 11.126 77.3644 12.9708 77.3644 15.2466Z" stroke="white" stroke-width="1.13672"/>
</svg>
