<svg xmlns="http://www.w3.org/2000/svg" width="171" height="29" viewBox="0 0 171 29" fill="none">
<path d="M170.855 23.0594H165.211V2.91327H170.855V23.0594Z" fill="black"/>
<path d="M137.963 17.0156C138.845 17.0156 139.551 17.3463 140.139 17.9477C140.727 18.5791 141.021 19.3008 141.021 20.1427C141.021 21.0448 140.727 21.7664 140.139 22.3378C139.551 22.9391 138.845 23.2097 137.963 23.2097C137.081 23.2097 136.346 22.9391 135.758 22.3378C135.171 21.7664 134.906 21.0448 134.906 20.1427C134.906 19.3008 135.171 18.5791 135.758 17.9477C136.346 17.3463 137.081 17.0156 137.963 17.0156Z" fill="black"/>
<path d="M134.449 7.69421C134.89 7.69421 135.243 7.72428 135.508 7.78442L135.302 13.5877H134.42C132.832 13.5877 131.598 13.9786 130.775 14.7303C129.922 15.482 129.51 16.7149 129.51 18.4589V23.0594H124.013V7.87463H129.51V10.8815C130.598 8.77669 132.244 7.69421 134.449 7.69421Z" fill="black"/>
<path d="M122.04 15.7827V16.8351H111.603C111.779 17.5869 112.103 18.1582 112.573 18.5791C113.044 19.0001 113.602 19.1805 114.308 19.1805C115.542 19.1805 116.424 18.6994 116.924 17.7071L121.834 18.6994C121.216 20.2931 120.246 21.4958 118.953 22.3077C117.63 23.1195 116.072 23.5104 114.308 23.5104C112.015 23.5104 110.104 22.7587 108.546 21.2553C106.987 19.7518 106.223 17.8274 106.223 15.482C106.223 13.1367 106.987 11.1822 108.546 9.67876C110.104 8.17532 112.015 7.4236 114.308 7.4236C116.571 7.4236 118.423 8.17532 119.864 9.64869C121.275 11.1521 122.01 13.1968 122.04 15.7827ZM114.308 11.8136C113.661 11.8136 113.132 11.9941 112.661 12.3248C112.191 12.6856 111.838 13.1367 111.662 13.7381H116.718C116.336 12.4752 115.542 11.8136 114.308 11.8136Z" fill="black"/>
<path d="M106.207 7.87463L97.6222 28.1711H91.8307L94.212 22.5182L88.0383 7.87463H93.8592L96.4069 14.3769C96.628 14.9413 97.4056 14.9514 97.6407 14.393L100.386 7.87463H106.207Z" fill="black"/>
<path d="M86.5542 7.87463V23.0594H81.0566V21.8266C79.9395 22.9692 78.499 23.5104 76.7057 23.5104C74.6478 23.5104 72.9133 22.7888 71.5609 21.2853C70.2086 19.7819 69.5324 17.8575 69.5324 15.482C69.5324 13.1066 70.2086 11.1822 71.5609 9.67876C72.9133 8.17532 74.6478 7.4236 76.7057 7.4236C78.499 7.4236 79.9395 7.9949 81.0566 9.10745V7.87463H86.5542ZM78.0286 18.8197C78.8518 18.8197 79.5867 18.519 80.1747 17.8575C80.7627 17.226 81.0566 16.4443 81.0566 15.482C81.0566 14.5198 80.7627 13.7381 80.1747 13.0765C79.5867 12.4451 78.8518 12.1143 78.0286 12.1143C77.1172 12.1143 76.3823 12.4451 75.8531 13.0765C75.2945 13.708 75.03 14.5198 75.03 15.482C75.03 16.4443 75.2945 17.2561 75.8531 17.8876C76.3823 18.519 77.1172 18.8197 78.0286 18.8197Z" fill="black"/>
<path d="M67.5554 23.0594H62.0579V1.40984H67.5554V23.0594Z" fill="black"/>
<path d="M60.8826 23.0594H54.0328L50.2489 18.2433C50.132 18.0944 49.9554 18.0078 49.7687 18.0078C49.4284 18.0078 49.1526 18.29 49.1526 18.638V23.0594H43.6551V1.40984H49.1526V12.4471C49.1526 12.6951 49.3492 12.8961 49.5917 12.8961C49.7232 12.8961 49.8477 12.8359 49.9311 12.7319L53.827 7.87464H60.324L55.8642 13.3485C55.0409 14.3589 55.038 15.8259 55.8572 16.8398L60.8826 23.0594Z" fill="black"/>
<path d="M35.3907 7.4236C37.0664 7.4236 38.4187 7.9949 39.4477 9.10745C40.4472 10.2501 40.9764 11.7535 40.9764 13.6478V23.0594H35.4495V14.8506C35.4495 14.1289 35.2437 13.5576 34.8615 13.1066C34.4793 12.6856 33.9796 12.4451 33.3622 12.4451C32.5978 12.4451 32.0099 12.7458 31.5689 13.287C31.1279 13.8583 30.9221 14.6702 30.9221 15.6925V23.0594H25.4246V7.87463H30.9221V9.40814C32.0981 8.08511 33.5974 7.4236 35.3907 7.4236Z" fill="black"/>
<path d="M19.6382 0.357422C20.5201 0.357422 21.2551 0.68818 21.843 1.28956C22.431 1.89093 22.725 2.61259 22.725 3.42444C22.725 4.32651 22.431 5.04816 21.843 5.61947C21.2551 6.22085 20.5201 6.49147 19.6382 6.49147C18.7268 6.49147 17.9918 6.22085 17.4039 5.61947C16.8159 5.04816 16.5513 4.32651 16.5513 3.42444C16.5513 2.58252 16.8453 1.86086 17.4333 1.25949C18.0212 0.65811 18.7562 0.357422 19.6382 0.357422ZM22.4016 23.0594H16.9041V7.87463H22.4016V23.0594Z" fill="black"/>
<path d="M157.844 12.8887C157.798 11.5378 157.297 10.3732 156.34 9.39488C155.43 8.4166 154.314 7.92746 152.993 7.92746C151.626 7.92746 150.465 8.4166 149.509 9.39488C148.598 10.3732 148.142 11.5378 148.142 12.8887H157.844ZM148.142 17.85V23.153H143.292V12.8887C143.292 10.1868 144.225 7.85758 146.093 5.90102C148.006 3.94446 150.306 2.96618 152.993 2.96618C155.635 2.96618 157.889 3.94446 159.756 5.90102C161.669 7.85758 162.626 10.1868 162.626 12.8887V23.153H157.844V17.85H148.142Z" fill="black"/>
<path d="M14.7254 17.4841V23.0594H4.67703C2.09398 23.0594 0 20.9177 0 18.2757V3.19531H5.56549V15.434C5.56549 16.5662 6.46291 17.4841 7.56993 17.4841H14.7254Z" fill="black"/>
</svg>