<svg width="16" height="16" viewBox="0 0 16 16" fill="none" xmlns="http://www.w3.org/2000/svg">
<path d="M3.34401 6.02408C3.42601 6.14408 3.52001 6.26008 3.62601 6.37208C4.03201 6.80208 4.60601 7.16608 5.29201 7.43408C5.52601 7.52608 5.77401 7.60408 6.03401 7.67408C6.49601 7.79208 6.99601 7.87008 7.51601 7.90008C7.67401 7.91008 7.83601 7.91408 8.00001 7.91408C8.16401 7.91408 8.32601 7.91008 8.48401 7.90008C9.00401 7.87008 9.50401 7.79208 9.96601 7.67408C10.226 7.60608 10.474 7.52608 10.708 7.43408C11.394 7.16808 11.966 6.80208 12.374 6.37208C12.48 6.26208 12.574 6.14408 12.656 6.02408C12.742 5.89808 12.816 5.76808 12.874 5.63408C12.984 5.38408 13.044 5.12008 13.044 4.84608C13.044 3.15208 10.786 1.77808 8.00201 1.77808C5.21801 1.77808 2.96001 3.15208 2.96001 4.84608C2.96001 5.11808 3.01801 5.38208 3.13001 5.63408C3.18401 5.76808 3.25801 5.89808 3.34401 6.02408ZM8.00001 11.8421C5.95601 11.8421 4.18601 11.1841 3.12801 10.1641C3.01801 10.4161 2.95801 10.6801 2.95801 10.9541C2.95801 12.6481 5.21601 14.0221 8.00001 14.0221C10.784 14.0221 13.042 12.6501 13.042 10.9541C13.042 10.6821 12.984 10.4181 12.872 10.1641C11.814 11.1841 10.044 11.8421 8.00001 11.8421Z" fill="white"/>
<path d="M11.784 7.89791C11.63 7.98191 11.468 8.06191 11.3 8.13591C11.11 8.21991 10.912 8.29591 10.708 8.36391C9.90001 8.63591 8.98201 8.78791 8.00001 8.78791C7.01801 8.78791 6.10001 8.63591 5.29201 8.36391C5.08801 8.29591 4.89001 8.22191 4.70001 8.13591C4.53201 8.06391 4.37001 7.98191 4.21601 7.89791C3.80001 7.66991 3.43201 7.40591 3.12601 7.10791C3.01576 7.35672 2.95854 7.62577 2.95801 7.89791C2.95801 8.16991 3.01601 8.43391 3.12801 8.68791C3.18401 8.82191 3.26001 8.95191 3.34601 9.07791C3.42801 9.19791 3.52201 9.31391 3.62801 9.42591C4.49801 10.3479 6.13001 10.9679 8.00201 10.9679C9.87401 10.9679 11.506 10.3479 12.376 9.42591C12.482 9.31591 12.576 9.19791 12.658 9.07791C12.744 8.95191 12.818 8.82191 12.876 8.68791C12.986 8.43591 13.046 8.17191 13.046 7.89791C13.046 7.62591 12.988 7.36191 12.878 7.10791C12.568 7.40591 12.2 7.66991 11.784 7.89791Z" fill="white"/>
</svg>
