<svg width="200" height="200" viewBox="0 0 200 200" fill="none" xmlns="http://www.w3.org/2000/svg">
<g clip-path="url(#clip0_4710_7298)">
<rect width="200" height="200" fill="white"/>
<circle cx="100" cy="100" r="100" fill="#F9FFE2"/>
<circle cx="100" cy="100" r="78" fill="#EEFFAC"/>
<circle cx="100" cy="100" r="51" fill="#CCFF00"/>
<g clip-path="url(#clip1_4710_7298)">
<rect x="81.0624" y="86.057" width="37.2824" height="31.8945" rx="5.11303" fill="#789600" stroke="#789600" stroke-width="0.4334"/>
<rect x="84.7183" y="91.9107" width="29.9645" height="20.3859" rx="2.44038" fill="#789600" stroke="#CCFF00" stroke-width="1.76471"/>
<path d="M77.8789 93.7656C77.6136 93.7656 77.3984 93.9808 77.3984 94.2461V108.562C77.3985 108.827 77.6136 109.042 77.8789 109.042H80.7012V93.7656H77.8789Z" fill="#789600" stroke="#789600" stroke-width="0.288933"/>
<path d="M121.52 93.7656C121.785 93.7656 122 93.9808 122 94.2461V108.562C122 108.827 121.785 109.042 121.52 109.042H118.697V93.7656H121.52Z" fill="#789600" stroke="#789600" stroke-width="0.288933"/>
<path d="M74.2754 96.7559C74.0101 96.7559 73.7949 96.971 73.7949 97.2363V106.164C73.7951 106.429 74.0102 106.645 74.2754 106.645H75.9004V96.7559H74.2754Z" fill="#789600" stroke="#789600" stroke-width="0.288933"/>
<path d="M125.119 96.7559C125.384 96.7559 125.6 96.971 125.6 97.2363V106.164C125.599 106.429 125.384 106.645 125.119 106.645H123.494V96.7559H125.119Z" fill="#789600" stroke="#789600" stroke-width="0.288933"/>
<path d="M92.8086 85.8385C92.8086 84.1854 94.1487 82.8452 95.8019 82.8452H102.986C104.639 82.8452 105.979 84.1854 105.979 85.8385H92.8086Z" fill="#789600"/>
<rect x="98.2031" y="78.6572" width="2.39466" height="4.19065" fill="#789600"/>
<path d="M96.4043 76.7713C96.4043 75.1661 97.7056 73.8647 99.3109 73.8647H99.4844C101.09 73.8647 102.391 75.1661 102.391 76.7713V76.9448C102.391 78.5501 101.09 79.8514 99.4844 79.8514H99.3109C97.7056 79.8514 96.4043 78.5501 96.4043 76.9448V76.7713Z" fill="#789600"/>
<rect x="96.4043" y="113.978" width="6.85422" height="1.32662" rx="0.663311" fill="#789600"/>
<path d="M95.0799 102C95.0799 103.105 94.1666 104 93.04 104C91.9133 104 91 103.105 91 102C91 100.895 91.9133 100 93.04 100C94.1666 100 95.0799 100.895 95.0799 102Z" fill="white"/>
<path d="M101.54 102C101.54 103.105 100.627 104 99.5 104C98.3734 104 97.46 103.105 97.46 102C97.46 100.895 98.3734 100 99.5 100C100.627 100 101.54 100.895 101.54 102Z" fill="white"/>
<path d="M108 102C108 103.105 107.087 104 105.96 104C104.833 104 103.92 103.105 103.92 102C103.92 100.895 104.833 100 105.96 100C107.087 100 108 100.895 108 102Z" fill="white"/>
</g>
</g>
<defs>
<clipPath id="clip0_4710_7298">
<rect width="200" height="200" fill="white"/>
</clipPath>
<clipPath id="clip1_4710_7298">
<rect width="60" height="45.8824" fill="white" transform="translate(70 74)"/>
</clipPath>
</defs>
</svg>
